<svg
  xmlns="http://www.w3.org/2000/svg"
  width="150"
  height="150"
  viewBox="0 0 2101.000000 1448.000000"
>

<path d="M10425 14459 c-1756 -64 -3429 -786 -4710 -2031 -825 -802 -1451
-1799 -1800 -2868 -51 -158 -139 -470 -149 -536 l-7 -41 173 28 c461 75 643
95 970 108 1060 43 2193 -198 3468 -737 316 -133 351 -145 440 -146 99 -1 172
33 302 141 298 248 535 406 821 546 386 190 791 305 1257 359 168 19 681 16
890 -6 861 -87 1627 -321 2475 -755 435 -223 632 -343 1415 -863 912 -605
1421 -932 1544 -988 105 -48 406 -163 412 -157 10 9 34 374 40 602 19 687 -75
1426 -266 2105 -511 1811 -1728 3363 -3366 4293 -910 517 -1887 821 -2959 922
-147 14 -633 36 -715 33 -19 -1 -125 -4 -235 -9z"/>
<path d="M11355 8804 c-523 -53 -890 -155 -1290 -359 -251 -128 -459 -264
-682 -450 -118 -99 -401 -370 -393 -378 3 -3 340 -218 750 -478 l745 -474 115
3 c218 6 500 -27 748 -88 359 -88 609 -184 1437 -553 253 -112 749 -333 1102
-491 989 -440 1640 -716 1856 -787 160 -53 337 -98 622 -158 132 -28 311 -67
398 -87 l159 -36 291 11 c318 12 397 19 590 56 220 43 358 31 464 -39 l40 -26
114 16 c723 100 1562 446 2124 873 142 108 329 297 399 404 32 48 56 91 53 94
-10 9 -221 -13 -442 -46 -345 -51 -550 -65 -940 -65 -377 0 -551 12 -865 60
-721 110 -1400 357 -2040 742 -194 116 -396 255 -683 470 -458 343 -783 564
-1147 781 -918 548 -1820 873 -2740 986 -128 16 -682 29 -785 19z"/>
<path d="M3800 5167 c0 -8 94 -256 148 -392 590 -1473 1427 -2603 2517 -3397
892 -649 1961 -1078 3178 -1273 1115 -178 2198 -116 3167 182 1060 326 2008
905 2884 1763 183 179 501 518 493 526 -2 2 -41 -7 -88 -21 -1013 -292 -1716
-442 -2339 -497 -213 -18 -687 -15 -895 6 -595 61 -1673 315 -2520 593 -810
266 -1305 475 -3140 1328 -1188 552 -1747 806 -1967 894 -364 145 -763 242
-1103 270 -163 13 -335 22 -335 18z"/>
</svg>
